<svg width="1475" height="2443" viewBox="0 0 1475 2443" fill="none" xmlns="http://www.w3.org/2000/svg">
<path d="M1414.07 399.71L1392.86 420.916L1368.12 442.122L1350.45 463.329L1332.78 495.138L1336.31 512.809L1339.85 541.084L1336.31 565.825L1332.78 587.031L1336.31 608.237L1329.24 625.909L1318.64 647.115L1315.11 664.787V682.458L1318.64 703.664V795.558L1322.18 823.833L1325.71 852.108L1332.78 880.382L1350.45 922.795V944L1343.38 954.604L1332.78 961.672L1304.5 958.138H1290.37L1276.23 961.672L1265.63 968.741L1255.02 982.879L1251.49 1000.55V1014.69L1255.02 1032.36L1265.63 1046.5L1290.37 1067.7L1300.97 1081.84L1297.44 1095.98L1293.9 1110.11L1276.23 1138.39L1269.16 1156.06L1258.56 1177.27L1272.7 1216.15L1279.76 1240.89L1286.83 1262.09V1290.37L1283.3 1308.04L1279.76 1322.18L1262.09 1353.99L1212.61 1414.07L1202.01 1431.74L1191.41 1460.02L1173.73 1513.03L1131.32 1597.86L1110.11 1661.47L1113.65 1675.61L1117.18 1696.82L1138.39 1746.3L1148.99 1792.25L1156.06 1806.38L1166.66 1816.99L1184.34 1845.26L1194.94 1855.86L1216.14 1873.54L1226.75 1884.14L1233.82 1898.28L1237.35 1912.41V1933.62L1240.89 1947.76L1262.09 1968.96L1265.63 1979.57V1990.17L1244.42 2004.31L1230.28 2018.44L1216.14 2050.25L1212.61 2071.46L1216.14 2089.13L1223.21 2110.34L1240.89 2124.47L1255.02 2135.08L1265.63 2149.21L1269.16 2163.35L1265.63 2177.49L1240.89 2230.51L1226.75 2304.73L1194.94 2318.86L1187.87 2329.47L1170.2 2340.07L1152.53 2357.74L1092.44 2396.62L1018.22 2421.36L997.016 2424.89L979.345 2421.36L968.74 2407.22L908.657 2393.09L873.314 2357.74L855.642 2322.4L841.504 2287.06L823.832 2272.92L753.145 2230.51L724.871 2223.44H685.991L601.168 2205.76L583.497 2195.16L572.894 2184.56L565.825 2173.96L548.153 2170.42H534.015L505.74 2163.35L480.999 2152.75L438.587 2124.47L403.243 2082.06L389.107 2078.53L374.969 2074.99L357.297 2082.06L343.161 2085.6L318.42 2092.67L233.595 2067.92H226.526L240.664 2039.65L244.197 2011.38L247.733 1951.29L251.266 1905.34L268.938 1852.33L283.077 1813.45L321.954 1799.31L357.297 1756.9L385.571 1636.73L417.382 1495.36L427.984 1209.08V1166.66L406.779 1103.05V1067.7L392.641 1021.76L367.9 982.879L325.489 940.466L272.474 912.191L222.992 922.795L208.854 936.932L198.251 954.604L184.115 968.741L162.908 972.275H88.6871L81.6179 961.672L63.9462 922.795L56.877 905.123L32.1361 873.313L25.0691 845.038L42.7409 834.436L21.5335 820.298L18 777.886L21.5335 753.146L71.0153 788.489L134.633 816.764L159.374 820.298L212.389 784.955L254.802 735.474L336.092 576.428L353.764 509.275L350.228 477.466L364.366 431.519L374.969 413.847L385.571 265.405L389.107 233.596L374.969 215.924L360.833 201.786L321.954 162.909L300.748 138.168L297.213 124.031L339.625 116.962L357.297 120.496L374.969 109.893L389.107 95.7557L413.848 74.5499L431.52 71.0153L452.725 78.0839L470.397 85.1525L502.207 95.7557H703.663L735.473 85.1525L767.283 56.8781L799.091 46.2749H827.366L841.504 53.3435L848.573 63.9467L855.642 78.0839L901.588 99.2902L961.673 148.771L979.345 155.84L989.947 148.771L997.016 141.702L1014.69 131.099H1035.89L1050.03 134.634L1064.17 138.168L1081.84 148.771H1099.51L1113.65 145.237L1145.46 131.099H1159.6L1177.27 127.565L1212.61 99.2902L1240.89 85.1525L1258.56 74.5499L1276.23 46.2749L1293.9 28.6032L1329.24 18L1350.45 21.5346L1403.47 42.7404L1417.6 53.3435L1431.74 63.9467L1438.81 78.0839V92.2216V102.824L1424.67 116.962L1438.81 127.565L1445.88 138.168L1452.95 152.306L1456.48 194.718V212.389L1449.41 230.061L1442.34 244.198L1438.81 258.336L1435.27 286.611L1424.67 318.42V339.626V357.298L1414.07 399.71Z" fill="#B8A282" stroke="white" stroke-width="35.3435" stroke-linecap="round" stroke-linejoin="round"/>
</svg>
