<svg width="2107" height="2044" viewBox="0 0 2107 2044" fill="none" xmlns="http://www.w3.org/2000/svg">
<path d="M2092.67 1668.54L2085.6 1672.08L1986.64 1732.16L1976.03 1749.83L1965.43 1778.11L1961.89 1792.25L1947.76 1802.85L1926.55 1809.92L1898.28 1806.38L1855.86 1792.25H1834.66L1806.38 1799.31L1753.37 1824.05L1725.09 1834.66L1700.35 1827.59L1689.75 1816.99L1675.61 1809.92H1661.47L1594.32 1841.73L1417.61 1947.76L1346.92 2014.91L1332.78 2021.98L1318.64 2025.51L1304.51 2021.98L1290.37 2011.38L1233.82 1976.03L1244.42 1933.62V1915.95V1894.74L1255.02 1862.93L1258.56 1834.66L1262.09 1820.52L1269.16 1806.38L1276.23 1788.71V1771.04L1272.7 1728.63L1265.63 1714.49L1258.56 1703.89L1244.42 1693.28L1258.56 1679.15V1668.54V1654.41L1251.49 1640.27L1237.35 1629.67L1223.22 1619.06L1170.2 1597.86L1148.99 1594.32L1113.65 1604.92L1095.98 1622.6L1078.31 1650.87L1060.63 1661.47L1032.36 1675.61L997.016 1703.89L979.345 1707.42H965.206L933.398 1721.56L919.26 1725.09H901.588L883.917 1714.49L869.78 1710.96L855.642 1707.42H834.437L816.765 1718.02L809.696 1725.09L799.093 1732.16L781.422 1725.09L721.337 1675.61L675.391 1654.41L668.322 1640.27L661.253 1629.67L647.114 1622.6H618.84L587.032 1633.2L555.222 1661.47L523.412 1672.08H321.956L290.146 1661.47L272.474 1654.41L251.269 1647.34L233.597 1650.87L208.856 1672.08L194.718 1686.22L177.046 1696.82L159.374 1693.28L116.961 1700.35V1693.28L120.497 1626.13L116.961 1562.51V1527.17L102.825 1513.03L99.2897 1488.29L85.1536 1463.55L42.7409 1470.62L18 1460.02L25.0691 1431.74L46.2744 1407L67.4818 1382.26L99.2897 1375.19L113.428 1339.85L134.633 1329.25L166.443 1269.16L180.582 1230.28L233.597 1191.41L261.871 1194.94L290.146 1219.68L304.284 1230.28L321.956 1226.75L339.627 1219.68L357.299 1202.01L406.779 1166.66L431.52 1177.27L456.261 1170.2L473.932 1152.53L488.069 1127.79L519.879 1032.36L534.017 940.466L541.084 912.191V876.848L544.62 845.039L548.153 802.627H551.689L569.36 837.97L579.963 845.039L594.099 855.642L601.168 866.245L615.307 862.711L608.237 823.833L601.168 809.695L611.771 802.627L618.84 799.092L643.581 806.161L640.047 792.024L636.512 784.955H611.771H579.963L572.894 777.886L569.36 767.283L551.689 781.421V774.352L548.153 717.802L523.412 675.39L502.207 664.787L463.33 657.718L459.794 643.581L473.932 632.978H502.207L526.948 636.512L544.62 618.84L555.222 583.497L558.756 555.222L555.222 541.084L558.756 523.413V484.535L569.36 470.397L565.825 452.726L569.36 442.122L590.566 459.794L611.771 473.932L625.909 481L647.114 505.741L678.924 544.619L707.199 565.825H731.94L763.75 544.619L777.886 512.809L806.16 502.207L855.642 512.809L901.588 551.688L912.191 587.031L905.124 625.909L901.588 668.321L898.055 685.993V703.665L905.124 735.474L912.191 781.421L926.329 830.901L947.534 1000.55L979.345 1064.17L1035.89 1092.44L1088.91 1085.38L1124.25 1042.96L1148.99 1018.22L1170.2 972.275L1166.66 961.673L1163.13 944.001L1170.2 926.329L1163.13 922.795L1152.53 926.329L1145.46 922.795L1138.39 915.726L1145.46 908.657H1159.6V898.054V887.451L1170.2 876.848V866.245L1173.73 859.176L1184.34 830.901L1191.41 827.367L1209.08 830.901L1219.68 848.573L1247.95 852.108L1258.56 859.176L1269.16 876.848L1279.76 890.986L1297.44 905.123V912.191L1290.37 926.329V936.932L1293.9 940.466L1308.04 944.001L1329.25 951.07L1357.52 965.207L1371.66 972.275L1385.8 968.741L1396.4 979.345L1403.47 993.482L1414.07 1014.69L1445.88 1035.89H1460.02L1484.76 1025.29L1505.96 1007.62L1527.17 979.345L1576.65 862.711L1587.25 820.299L1594.32 717.802L1601.39 696.596L1597.86 682.458L1604.93 664.787L1619.06 654.184L1626.13 636.512L1633.2 608.237L1626.13 565.825L1608.46 526.947L1587.25 484.535L1551.91 445.657L1527.17 424.451H1502.43L1491.83 445.657L1484.76 459.794L1474.15 470.397V477.466L1481.22 481L1495.36 459.794V470.397L1484.76 488.069L1445.88 519.879L1424.67 526.947L1399.93 548.153L1385.8 569.359L1357.52 562.291L1325.71 548.153L1308.04 551.688L1293.9 548.153L1276.23 558.756L1258.56 583.497H1212.61L1194.94 597.634L1177.27 594.1L1163.13 597.634L1124.25 622.375L1106.58 650.65H1088.91L1053.57 625.909L1050.03 565.825V548.153L1067.7 530.481L1074.77 488.069L1067.7 463.329L1081.84 424.451L1088.91 385.573L1095.98 357.298V346.695L1106.58 332.558L1117.19 293.68L1120.72 258.336L1131.32 212.389L1152.53 194.718L1187.87 138.168L1202.01 124.031L1205.54 116.962L1212.61 85.153V67.4813L1205.54 49.8095L1209.08 46.2749L1212.61 28.6032L1219.68 18L1233.82 39.2063L1262.09 53.3435L1276.23 74.5499L1293.9 92.2216L1322.18 106.359L1343.38 113.428L1392.86 116.962L1438.81 141.702L1481.22 187.649L1498.89 212.389L1523.64 230.061L1527.17 244.199L1541.31 258.336L1587.25 290.146L1633.2 311.351H1679.15L1714.49 300.748L1753.37 279.542L1785.18 254.802L1827.59 212.389L1841.73 194.718L1848.79 208.855L1841.73 219.459L1845.26 233.596L1841.73 240.664L1834.66 244.199L1841.73 258.336L1838.19 272.474L1824.06 290.146L1809.92 346.695L1799.31 371.435L1781.64 456.26L1778.11 495.138V512.809L1760.44 601.168L1767.5 636.512L1771.04 650.65L1767.5 668.321V689.527V707.199L1756.9 799.092L1760.44 876.848V944.001L1763.97 961.673L1778.11 1120.72L1799.31 1255.02L1813.45 1339.85L1852.33 1452.95L1866.47 1484.76L1877.07 1502.43L1908.88 1537.77L1923.02 1548.38H1940.69L1954.83 1534.24L1972.5 1530.7L1986.64 1562.51L2025.51 1590.79L2092.67 1668.54Z" fill="#B8A282" stroke="white" stroke-width="35.3435" stroke-linecap="round" stroke-linejoin="round"/>
</svg>
