<svg width="2178" height="1711" viewBox="0 0 2178 1711" fill="none" xmlns="http://www.w3.org/2000/svg">
<path d="M2036.12 124.031L2067.92 184.115L2106.8 254.802L2117.41 304.283L2120.94 325.489L2131.54 339.626L2138.61 360.833V389.107L2135.08 399.711L2124.48 420.917L2120.94 427.985L2128.01 438.589L2142.15 459.794L2145.68 473.932L2159.82 862.711L2152.75 908.657L2128.01 1011.15L2131.54 1057.1L2120.94 1074.77V1209.08V1223.21L2099.73 1272.7L2085.6 1396.4L2067.92 1445.88L2029.05 1484.76L2018.45 1488.29L1990.17 1495.36L1954.83 1520.1L1926.55 1530.7L1908.88 1548.38L1901.81 1555.44L1891.21 1562.51L1887.67 1576.65V1601.39L1884.14 1619.06L1771.04 1587.25L1756.9 1580.18L1675.61 1548.38L1657.94 1534.24L1643.8 1520.1L1640.27 1509.5L1629.67 1502.43L1626.13 1505.96L1615.53 1516.57L1611.99 1530.7L1615.53 1544.84L1622.6 1566.05L1626.13 1583.72L1619.06 1594.32L1583.72 1619.06L1562.51 1640.27L1551.91 1654.41L1541.31 1665.01L1523.64 1686.22L1509.5 1693.28L1488.29 1689.75L1438.81 1661.47L1407 1633.2L1378.73 1601.39L1350.45 1576.65L1325.71 1548.38L1300.97 1534.24L1247.95 1505.96L1251.49 1481.22L1244.42 1414.07L1240.89 1399.93L1233.82 1392.86L1212.61 1382.26L1202.01 1371.66L1198.47 1353.99L1194.94 1336.31L1187.87 1322.18L1177.27 1315.11L1163.13 1304.51L1106.58 1258.56L1088.91 1247.96L929.863 1202.01L883.917 1194.94L848.573 1202.01L820.299 1212.61L774.352 1247.96L739.009 1283.3L710.735 1286.83L689.527 1290.37L611.771 1322.18L420.917 1435.28L367.902 1452.95L346.694 1460.02L304.284 1505.96L251.269 1537.77L148.771 1513.03H120.497L99.2897 1505.96L88.6871 1498.89L85.1536 1477.69L99.2897 1452.95L102.825 1396.4L113.428 1361.05V1343.38L106.359 1269.16V1233.82L109.894 1216.15V1198.47L102.825 1187.87L78.0844 1134.86L74.5509 1124.25H63.9462L53.3435 1127.79H42.7409L35.6718 1120.72L21.5356 1095.98L18 1078.31L21.5356 1057.1L56.8792 993.482L60.4127 975.81L78.0844 894.52V873.314L71.0153 859.177L63.9462 841.505L56.8792 830.901L53.3435 816.764L56.8792 802.627L63.9462 784.955L78.0844 770.818L99.2897 760.214H141.702L212.389 739.009H226.528L261.871 746.077L276.007 742.542L290.146 700.131L300.748 689.527L318.42 678.924L371.435 682.459H385.574L413.848 675.39L427.986 671.855L459.794 678.924L470.397 675.39L473.932 657.718L470.397 594.1L466.863 572.894L449.192 537.55L445.658 523.413L452.725 505.741L463.33 488.07L516.345 427.985L597.635 307.817L618.84 283.077L664.786 226.528L710.735 230.061L721.337 240.665L739.009 247.733L756.681 244.199L777.886 237.13H806.16L837.97 247.733H852.109L869.78 244.199L883.917 233.596L901.588 237.13L915.727 254.802L936.932 293.68L954.604 307.817L965.206 318.42L975.811 321.955L986.414 318.42L1018.22 314.887L1032.36 318.42L1046.5 321.955L1060.63 332.558L1085.38 357.298L1095.98 364.367H1110.12L1127.79 360.833L1145.46 343.161L1159.6 336.092H1173.73L1184.34 339.626L1209.08 343.161L1219.68 339.626L1240.89 329.024L1272.7 300.748L1283.3 283.077L1286.83 254.802L1279.76 208.856V148.771V99.2908L1283.3 74.5499V18L1339.85 42.7409H1378.73L1421.14 32.1383H1435.28L1481.22 49.81L1498.89 60.4127L1509.5 74.5499L1527.17 106.359L1541.31 116.963L1555.44 120.497H1566.05L1629.67 106.359L1675.61 120.497L1696.82 131.1L1718.03 134.634L1739.23 148.771L1749.83 169.978L1753.37 187.65L1749.83 219.459L1753.37 233.596L1756.9 244.199L1767.5 254.802L1809.92 286.611L1845.26 297.215H1862.93L1870 290.146L1859.4 279.543L1862.93 276.008L1915.95 272.474L1933.62 268.939L1944.22 254.802L1947.76 240.665V198.252V187.65V155.841V145.237L1958.36 134.634L1976.03 127.565L2036.12 124.031Z" fill="#B8A282" stroke="white" stroke-width="35.3435" stroke-linecap="round" stroke-linejoin="round"/>
</svg>
