<svg width="1641" height="2538" viewBox="0 0 1641 2538" fill="none" xmlns="http://www.w3.org/2000/svg">
<path d="M1134.86 2209.3L1127.79 2205.76L1081.84 2195.16L1050.03 2181.02L1018.22 2177.49H989.947L972.275 2181.02L958.139 2195.16L954.604 2212.83V2237.57V2258.78V2276.45V2290.59L940.467 2311.8L922.796 2333L919.26 2347.14V2361.28V2375.41L915.727 2407.22L919.26 2417.83L915.727 2428.43L908.657 2439.03L880.383 2470.84L869.78 2474.38L809.696 2446.1L784.955 2439.03L770.819 2435.5L756.681 2439.03L742.542 2456.7L735.475 2467.31L703.665 2484.98L693.063 2492.05L675.391 2513.25L664.788 2520.32H654.184L611.773 2492.05L572.894 2474.38L558.758 2456.7L534.017 2421.36V2407.22L541.086 2396.62L558.758 2382.48L562.291 2371.88L551.689 2361.28L534.017 2350.67L491.604 2347.14H413.848L399.712 2343.6L378.504 2336.54L300.748 2287.05L198.253 2241.11L134.635 2230.51L148.771 2156.28L173.512 2103.27L177.046 2089.13L173.512 2074.99L162.91 2060.86L148.771 2050.25L131.1 2036.12L124.031 2014.91L120.497 1997.24L124.031 1976.03L138.169 1944.22L152.307 1930.09L173.512 1915.95V1905.34L169.979 1894.74L148.771 1873.54L145.238 1859.4V1838.19L141.702 1824.05L134.635 1809.92L124.031 1799.31L102.825 1781.64L92.2227 1771.04L74.5509 1742.76L63.9483 1732.16L56.8792 1718.02L46.2766 1672.08L25.0691 1622.6L21.5356 1601.39L18 1587.25L39.2074 1523.63L81.6201 1438.81L99.2918 1385.79L109.894 1357.52L120.497 1339.85L169.979 1279.76L187.651 1247.95L191.184 1233.82L194.718 1216.15V1187.87L187.651 1166.66L180.582 1141.92L166.443 1103.05L177.046 1081.84L184.115 1064.17L201.787 1035.89L205.322 1021.76L208.856 1007.62L198.253 993.481L173.512 972.275L162.91 958.138L159.374 940.466V926.329L162.91 908.657L173.512 894.519L184.115 887.451L198.253 883.917H212.389L240.666 887.451L251.269 880.382L258.338 869.779V848.573L240.666 806.16L233.597 777.886L230.061 749.611L226.528 721.336V629.443L222.994 608.237V590.565L226.528 572.893L237.13 551.687L244.199 534.015L240.666 512.809L244.199 491.603L247.733 466.863L244.199 438.588L240.666 420.916L258.338 389.107L276.01 367.901L300.748 346.694L321.956 325.489L378.504 360.832L392.643 371.435L406.779 374.969L420.917 371.435L435.055 364.366L505.742 297.214L682.46 191.183L749.612 159.374H763.75L777.886 166.443L788.491 177.046L813.229 184.115L841.506 173.511L894.521 148.771L922.796 141.702H944.001L986.414 155.84L1014.69 159.374L1035.9 152.305L1050.03 141.702L1053.57 127.565L1064.17 99.2897L1074.77 81.6179L1173.73 21.534L1180.8 18L1191.41 28.6026L1223.22 74.5493L1230.28 102.824L1251.49 116.961L1262.09 138.168L1269.16 155.84L1283.3 191.183L1286.83 201.786L1290.37 219.458L1297.44 233.595L1318.64 258.336L1350.45 314.885L1364.59 353.764L1353.99 371.435L1343.38 374.969L1332.78 385.573L1325.71 403.244L1329.25 413.847L1343.38 427.985L1375.19 438.588L1389.33 452.725L1403.47 481L1389.33 498.672L1368.12 516.343L1357.52 548.153L1364.59 583.497L1378.73 608.237L1449.41 675.389L1463.55 682.458L1474.15 685.993L1484.76 693.061L1491.83 724.871L1495.36 742.542L1498.89 756.68L1491.83 770.817L1481.22 788.489L1477.69 799.092L1488.29 827.367L1502.43 848.573L1509.5 862.71L1513.03 908.657L1516.57 926.329L1544.84 1018.22L1548.38 1025.29V1032.36L1551.91 1053.57L1548.38 1064.17L1534.24 1081.84L1530.7 1088.91L1523.64 1120.72L1520.1 1187.87L1516.57 1209.08L1502.43 1240.89L1498.89 1262.09L1502.43 1283.3L1555.44 1226.75L1583.72 1223.21L1576.65 1237.35V1244.42V1255.02L1583.72 1262.09L1573.12 1286.83L1576.65 1304.5L1619.06 1343.38L1622.6 1353.99V1368.12L1608.46 1378.73V1389.33L1597.86 1392.86L1558.98 1442.34L1541.31 1456.48L1502.43 1470.62L1488.29 1484.76L1509.5 1509.5H1537.77L1562.51 1488.29L1576.65 1460.02L1583.72 1452.95L1601.39 1460.02L1608.46 1477.69L1594.32 1484.76L1587.25 1495.36V1516.57V1537.77L1576.65 1548.37L1555.44 1551.91L1544.84 1555.44L1534.24 1551.91L1520.1 1555.44L1509.5 1566.05L1484.76 1587.25L1474.15 1597.86L1502.43 1611.99L1488.29 1629.67L1460.02 1654.41L1435.28 1675.61L1456.48 1686.21L1481.22 1675.61L1505.96 1661.47L1520.1 1647.34L1523.64 1682.68L1502.43 1703.89L1445.88 1728.63L1456.48 1735.7L1460.02 1746.3L1467.08 1756.9H1456.48L1435.28 1760.44L1428.21 1756.9V1778.11V1795.78L1463.55 1799.31L1481.22 1795.78L1484.76 1827.59L1463.55 1848.79L1431.74 1862.93L1403.47 1855.86L1407 1880.6L1421.14 1887.67H1460.02L1445.88 1912.41L1424.67 1926.55L1392.86 1937.15H1364.59L1385.8 1958.36L1438.81 2000.77L1442.35 2018.44L1417.61 2029.05L1353.99 2007.84L1336.32 2029.05L1382.26 2053.79L1396.4 2067.92L1382.26 2074.99L1371.66 2078.53H1357.52H1339.85V2089.13L1353.99 2096.2L1368.12 2110.34L1378.73 2124.47L1368.12 2128.01L1322.18 2117.41L1276.23 2124.47H1255.02L1233.82 2106.8V2128.01L1240.89 2145.68L1247.96 2163.35L1255.02 2177.49H1244.42L1233.82 2181.02L1216.15 2198.7L1233.82 2205.76L1240.89 2219.9L1237.35 2234.04L1219.68 2237.57L1205.54 2234.04L1191.41 2219.9L1177.27 2205.76L1170.2 2188.09L1184.34 2181.02L1194.94 2166.89H1145.46L1131.32 2181.02L1134.86 2209.3Z" fill="#B8A282" stroke="white" stroke-width="35.3435" stroke-linecap="round" stroke-linejoin="round"/>
</svg>
