<svg width="1630" height="1803" viewBox="0 0 1630 1803" fill="none" xmlns="http://www.w3.org/2000/svg">
<path d="M1378.73 1042.96L1392.86 1053.57L1396.4 1057.1L1403.47 1067.7L1407 1081.84L1414.07 1085.37V1099.51L1403.47 1092.44H1392.86L1378.73 1071.24L1368.12 1064.17V1057.1L1371.66 1046.5L1378.73 1042.96ZM1332.78 1028.82L1315.11 1042.96L1308.04 1028.82L1311.57 1021.76V1014.69L1322.18 1004.08L1325.71 1018.22L1332.78 1028.82ZM1509.5 1053.57L1502.43 1067.7L1484.76 1046.5L1470.62 1021.76L1481.22 1007.62L1488.29 1000.55L1509.5 1014.69L1513.03 1025.29L1509.5 1039.43V1053.57ZM993.483 979.343L986.414 982.878L979.345 968.741L989.947 958.137L997.016 965.206L993.483 979.343ZM1555.44 219.457L1566.05 222.992L1569.58 230.061L1558.98 244.198L1548.38 240.664L1541.31 219.457L1534.24 212.389V194.718L1530.7 187.649L1541.31 180.579L1558.98 173.511L1566.05 177.046V191.183L1558.98 205.32L1555.44 219.457ZM770.819 1611.99L710.735 1615.53L693.063 1622.6L682.46 1633.2V1643.8V1675.61V1686.21V1728.63L678.924 1742.76L668.322 1756.9L650.65 1760.44L597.635 1763.97L594.101 1767.5L604.704 1778.11L597.635 1785.18H579.963L544.62 1774.57L502.207 1742.76L491.604 1732.16L488.071 1721.56L484.535 1707.42L488.071 1675.61L484.535 1657.94L473.932 1636.73L452.727 1622.6L431.52 1619.06L410.315 1608.46L364.368 1594.32L300.748 1608.46H290.146L276.01 1604.92L261.871 1594.32L244.199 1562.51L233.597 1548.37L215.925 1537.77L169.979 1520.1H155.841L113.428 1530.7H74.5509L18 1505.96L25.0691 1410.53L32.1383 1389.33L46.2766 1371.66L63.9483 1364.59L102.825 1361.05L120.497 1353.99L141.702 1339.85L162.91 1322.18L180.582 1290.37L212.389 1251.49L222.994 1233.82L233.597 1202.01L237.13 1177.27V1152.53V1099.51L244.199 1067.7L251.269 1046.5L261.871 1028.82L283.077 993.481L293.681 972.275L304.284 936.932L329.025 905.122L339.627 898.054L346.697 883.917L360.833 834.435L374.971 799.091L378.504 781.419L374.971 760.214L353.764 735.473L346.697 717.802L343.161 696.595V632.977L336.092 608.236L321.956 572.893L318.42 558.756V541.084L325.489 523.412L339.627 519.878L357.299 523.412H371.435L382.04 512.809L392.643 498.671L396.176 480.999L399.712 459.794V424.451V392.641L413.848 371.435V357.297L410.315 343.16L389.107 307.816L367.902 261.87L329.025 208.855L318.42 173.511L329.025 187.649L346.697 191.183L367.902 187.649L442.122 162.908L502.207 124.031L519.879 106.359L537.55 95.7551L544.62 85.1525L576.43 71.0153L640.047 81.6179L742.542 127.564L820.299 177.046L841.506 184.114L855.642 187.649H933.398L975.811 191.183L993.483 201.786L1004.09 212.389L1000.55 222.992L982.88 237.129L975.811 247.733V261.87L1000.55 297.214L1014.69 314.885L1053.57 332.557L1095.98 360.832H1106.58L1117.19 353.764L1134.86 332.557L1145.46 325.488L1177.27 307.816L1184.34 297.214L1198.47 279.542L1212.61 276.007L1226.75 279.542L1251.49 286.61L1311.57 314.885L1322.18 311.351L1350.45 279.542L1357.52 268.938L1361.05 258.336L1357.52 247.733L1361.05 215.923V201.786V187.649L1364.59 173.511L1382.26 152.305L1396.4 131.099V116.961V99.2897V78.0834V53.3435L1399.93 35.6718L1414.07 21.5335L1431.74 18H1460.02L1491.83 21.5335L1523.64 35.6718L1569.58 46.2744L1576.65 49.809L1580.18 113.427L1608.46 187.649L1611.99 219.457L1587.25 201.786V194.718L1580.18 173.511L1576.65 166.442L1573.12 159.374L1548.38 169.977H1527.17L1516.57 173.511L1513.03 187.649V215.923V244.198L1516.57 254.801V265.405L1498.89 283.077L1449.41 321.954L1442.35 339.625L1452.95 346.694L1460.02 357.297L1470.62 382.038L1491.83 396.175L1498.89 413.847L1491.83 435.053L1484.76 442.122L1470.62 427.984H1463.55L1460.02 435.053L1445.88 452.725L1435.28 463.328L1407 473.931L1392.86 480.999L1375.19 495.138V505.74L1385.8 519.878L1399.93 526.947L1452.95 530.481L1456.48 537.549L1449.41 558.756L1435.28 579.962L1428.21 590.565L1378.73 629.443L1396.4 647.114L1414.07 671.855L1431.74 678.923L1449.41 657.717L1463.55 682.458L1470.62 703.664V728.404L1463.55 756.68L1452.95 753.145L1442.35 746.076L1438.81 731.939L1431.74 717.802L1417.61 774.351L1410.54 788.489L1417.61 792.023L1424.67 809.695L1396.4 816.763L1382.26 823.832V834.435L1389.33 848.573V873.313L1403.47 887.45L1414.07 876.847L1435.28 873.313L1460.02 876.847L1470.62 898.054L1456.48 890.985H1438.81L1424.67 898.054L1417.61 915.726L1445.88 933.397L1449.41 961.672V993.481L1463.55 1018.22L1460.02 1028.82L1445.88 1067.7L1438.81 1064.17L1407 1032.36L1399.93 1028.82L1382.26 1025.29L1375.19 1021.76L1371.66 1011.15L1378.73 993.481V986.413L1368.12 975.809L1332.78 958.137L1336.32 947.534L1346.92 915.726L1332.78 905.122H1325.71L1315.11 908.656H1300.97L1286.83 905.122L1276.23 898.054L1251.49 873.313L1226.75 862.71H1194.94L1110.12 883.917L1078.31 898.054L1053.57 919.26L1042.96 951.069L1046.5 986.413H1039.43H1021.76L1014.69 979.343L997.016 915.726L986.414 922.794L979.345 926.328H968.742L958.139 915.726L936.932 933.397L922.796 954.604L908.657 979.343L905.124 1007.62L915.727 1000.55H926.329L936.932 1004.08L944.001 1018.22L940.467 1028.82L929.865 1035.89L919.26 1042.96L908.657 1050.03L866.245 1099.51L834.437 1156.06L809.696 1209.08L763.75 1382.26L756.681 1442.34V1505.96L770.819 1611.99Z" fill="#B8A282" stroke="white" stroke-width="35.3435" stroke-linecap="round" stroke-linejoin="round"/>
</svg>
