<svg width="1252" height="2054" viewBox="0 0 1252 2054" fill="none" xmlns="http://www.w3.org/2000/svg">
<path d="M1138.39 357.298L1148.99 392.642L1187.87 445.657L1209.08 491.603L1230.28 526.947L1233.82 541.084V555.222L1219.68 576.427V608.237V643.581L1216.14 664.786L1212.61 682.458L1202.01 696.596L1191.4 707.199H1177.27L1159.6 703.664L1145.46 707.199L1138.39 724.871V742.542L1141.92 756.68L1156.06 792.023L1163.13 816.764V880.382L1166.66 901.588L1173.73 919.26L1194.94 944.001L1198.47 965.206L1194.94 982.878L1180.8 1018.22L1166.66 1067.7L1159.6 1081.84L1148.99 1088.91L1124.25 1120.72L1113.65 1156.06L1103.04 1177.27L1081.84 1212.61L1071.24 1230.28L1064.17 1251.49L1057.1 1283.3V1336.31V1361.05L1053.57 1385.8L1042.96 1417.6L1032.36 1435.28L1000.55 1474.15L982.878 1505.96L961.671 1523.63L940.465 1537.77L922.794 1544.84L883.917 1548.37L866.245 1555.44L852.107 1573.12L845.037 1594.32L837.968 1689.75V1746.3L834.435 1771.04V1820.52V1880.6L841.504 1926.55L837.968 1954.83L827.366 1972.5L795.558 2000.77L774.35 2011.38L763.748 2014.91L739.007 2011.38L728.404 2007.84H714.266L700.13 2014.91L682.458 2032.58L664.786 2036.12H650.648L640.045 2029.05L615.304 2004.31L601.168 1993.7L587.03 1990.17L572.892 1986.64L541.084 1990.17L530.481 1993.7L519.876 1990.17L509.274 1979.57L491.602 1965.43L470.397 1926.55L456.259 1908.88L438.587 1905.34L424.451 1915.95L406.779 1919.48H392.641L360.831 1908.88H332.556L311.351 1915.95L293.679 1919.48L276.007 1912.41L265.405 1901.81L219.456 1898.28L177.046 1862.93L138.167 1841.73L113.426 1813.45L99.2897 1788.71L95.754 1767.5L99.2897 1749.83L109.892 1718.02L113.426 1682.68L116.961 1668.54L127.564 1636.73L124.031 1594.32L127.564 1580.18L152.305 1534.24L166.441 1368.12L177.046 1346.92L191.182 1336.31H208.854L254.8 1339.85L279.541 1336.31L297.213 1332.78L314.884 1322.18L353.764 1290.37L367.9 1272.7L378.502 1255.02L385.571 1223.21L382.038 1202.01L374.969 1184.34L357.297 1159.6L311.351 1124.25H293.679H261.869L247.733 1117.18L230.061 1106.58L215.923 1092.44L201.785 1078.31L191.182 1060.63L187.649 1035.89L191.182 982.878V961.673L194.718 922.795L184.113 915.726L169.977 908.657L138.167 901.588L35.6718 852.108L18 848.573L53.3435 760.214L78.0823 700.13L109.892 650.649L208.854 558.756L244.197 509.275L276.007 452.725L321.954 272.474L371.435 138.168L382.038 95.7562L389.107 42.7409L396.174 18H403.243L488.069 42.7409L512.809 35.6718L526.946 32.1372L544.617 25.0691L558.756 28.6026L572.892 32.1372L608.235 74.5499L650.648 102.824L675.389 113.428L703.663 120.496H717.802L735.473 124.031L742.542 134.633L753.145 145.237L770.817 155.84L855.64 173.511H894.519L922.794 180.58L993.481 222.992L1011.15 237.13L1025.29 272.474L1042.96 307.817L1078.31 343.161L1138.39 357.298Z" fill="#B8A282" stroke="white" stroke-width="35.3435" stroke-linecap="round" stroke-linejoin="round"/>
</svg>
